<svg id="Layer_1" data-name="Layer 1" xmlns="http://www.w3.org/2000/svg" viewBox="0 0 24 24"><defs><style>.cls-1{fill:none;}.cls-2{fill:#ffb103;}</style></defs><rect class="cls-1" width="24" height="24"/><path class="cls-2" d="M21,12.22a9,9,0,1,0-18,.06A2,2,0,0,0,2,14v2a2,2,0,0,0,2,2H5V11.9a7,7,0,1,1,14,0V19H11v2h8a2,2,0,0,0,2-2V17.78a1.85,1.85,0,0,0,1-1.64v-2.3A1.84,1.84,0,0,0,21,12.22Z"/><circle class="cls-2" cx="9" cy="13" r="1"/><circle class="cls-2" cx="15" cy="13" r="1"/><path class="cls-2" d="M18,11A6,6,0,0,0,6,12.45a8.07,8.07,0,0,0,4.86-5.89A8,8,0,0,0,18,11Z"/></svg>